/* XPM */
static char *result[] = {
/* columns rows colors chars-per-pixel */
"32 32 142 2 ",
"   c #5E130F",
".  c #5F140F",
"X  c #5D1F1C",
"o  c #60140F",
"O  c #60150F",
"+  c #61160F",
"@  c #611610",
"#  c #621610",
"$  c #631710",
"%  c #631810",
"&  c #631910",
"*  c #651A10",
"=  c #641B10",
"-  c #641D17",
";  c #691F11",
":  c #692011",
">  c #6D2411",
",  c #6D2511",
"<  c #64231B",
"1  c #682218",
"2  c #68211B",
"3  c #6C2719",
"4  c #66281C",
"5  c #692E1C",
"6  c #732512",
"7  c #742612",
"8  c #762813",
"9  c #772813",
"0  c #782913",
"q  c #792A13",
"w  c #7A2B13",
"e  c #7B2D14",
"r  c #7C2D14",
"t  c #752B19",
"y  c #782D19",
"u  c #782E1A",
"i  c #792F1A",
"p  c #792F1B",
"a  c #7C321A",
"s  c #7D331B",
"d  c #7B311D",
"f  c #7F351D",
"g  c #5F302E",
"h  c #623C3A",
"j  c #7D7878",
"k  c #7E7978",
"l  c #7F7A78",
"z  c gray50",
"x  c #873B15",
"c  c #8A3E16",
"v  c #8C3F16",
"b  c #8B3F18",
"n  c #8D4116",
"m  c #8E4216",
"M  c #8A421D",
"N  c #8C451D",
"B  c #914517",
"V  c #924717",
"C  c #924817",
"Z  c #944A18",
"A  c #954A18",
"S  c #954B18",
"D  c #964C18",
"F  c #985018",
"G  c #9A5218",
"H  c #A3601A",
"J  c #A6631A",
"K  c #A6651A",
"L  c #A7651A",
"P  c #A7661A",
"I  c #A8671B",
"U  c #AA681B",
"Y  c #AB6A1B",
"T  c #AC6C1B",
"R  c #AD6E1B",
"E  c #AE701C",
"W  c #AF701C",
"Q  c #B0721C",
"!  c #B0731C",
"~  c #8D4621",
"^  c #8F4820",
"/  c #985223",
"(  c #995323",
")  c #9A5425",
"_  c #9A5932",
"`  c #9D5B34",
"'  c #AA6B26",
"]  c #AB6D27",
"[  c #AD7026",
"{  c #AF7228",
"}  c #B17627",
"|  c #B27828",
" . c #827371",
".. c #807572",
"X. c #837877",
"o. c #807B78",
"O. c #BA881D",
"+. c #BB881E",
"@. c #BC881E",
"#. c #BF8D1E",
"$. c #BE8E1E",
"%. c #BF8E1E",
"&. c #C0901E",
"*. c #C2931F",
"=. c #C3941F",
"-. c #C4961F",
";. c #C1942A",
":. c #C3952B",
">. c #C69B2C",
",. c #868281",
"<. c #888381",
"1. c #888382",
"2. c #898482",
"3. c #898989",
"4. c #8E8988",
"5. c #908B8B",
"6. c #908C8B",
"7. c #909090",
"8. c #939393",
"9. c #ABA6A5",
"0. c #ACA8A5",
"q. c #AFAFAF",
"w. c #BCACA8",
"e. c #BEB9B7",
"r. c #C1C1C1",
"t. c gray77",
"y. c #C9C4C2",
"u. c #CEC9C6",
"i. c #CFCBC6",
"p. c #CDCDCD",
"a. c #D1CEC6",
"s. c gray82",
"d. c #DFDADA",
"f. c #E2DEDB",
"g. c #E3DFDB",
"h. c #E4E0DB",
"j. c #E5E2DB",
"k. c #E9E6DF",
"l. c #E9E7DF",
"z. c #E7E7E7",
"x. c #ECECEC",
"c. c #44896D",
/* pixels */
"c.c.c.c.c.c.c.c.c.c.c.c.c.c.c.c.c.c.c.c.c.c.c.c.c.c.c.c.c.c.c.c.",
"c.c.c.c.c.c.c.c.c.c.c.c.c.c.c.c.c.c.c.c.c.c.c.c.c.c.c.c.c.c.c.c.",
"c.c.c.c.c.c.c.c.c.c.c.c.c.c.c.c.c.c.c.c.c.c.c.c.c.c.c.c.c.c.c.c.",
"c.c.c.c.c.c.c.c.c.c.c.c.c.c.c.c.c.c.c.c.c.c.c.c.c.c.c.c.c.c.c.c.",
"c.c.c.c.c.c.c.c.c.c.c.c.c.c.c.c.c.c.c.c.c.c.c.c.c.c.c.c.c.c.c.c.",
"c.c.c.c.c.c.c.< 5.8.1 * * * * ; : : : : : : 6.8.3 c.c.c.c.c.c.c.",
"c.c.c.c.c.c.4 C u.s.( A A A A U Y Y Y L L L i.s.' > c.c.c.c.c.c.",
"c.c.c.c.c.5 P E h.z.{ E Y E Y E Y E Y G S F f.z.) R , c.c.c.c.c.",
"c.c.c.c.X $.! =.a.s.} =.! =.! %.T #.T #.T *.a.s.} =.! & c.c.c.c.",
"c.c.c.c.X $.&.&.k.x.:.&.-.-.-.! W W W W W =.l.x.>.-.-.= c.c.c.c.",
"c.c.c.c.X O.Q Y h.z.| Y *.&.-.&.-.&.-.&.-.&.j.z.>.&.-.= c.c.c.c.",
"c.c.c.c.X K #.T i.s.;.T #.T @.I +.I +.T #.T i.s.;.T #.= c.c.c.c.",
"c.c.c.c.X K L L g.z.{ Y Y Y D A A A A U L L g.z.] L L % c.c.c.c.",
"c.c.c.c.X H D B y.p.[ L Y L Y L Y L Y L D B y.p./ B Z @ c.c.c.c.",
"c.c.c.c.X m J V y.p.' V J V J V J V J V J V y.p.' V J % c.c.c.c.",
"c.c.c.c.X x c c e.r.~ c c c c ` _ b c c c c e.r.~ c c + c.c.c.c.",
"c.c.c.c.X @ # # j z - # # # # d.t.2 # # # # j z - # #   c.c.c.c.",
"c.c.c.c.X 6 7 0 4.7.s r r r 0 w...y 0 0 0 0 4.7.p 0 0 o c.c.c.c.",
"c.c.c.c.X @ # 9 9.q.^ n n n q 0 0 0 e r r r 9.q.f r 0 o c.c.c.c.",
"c.c.c.c.X w r r l z u 0 7 7 7 7 0 0 v n n n o.z N n q o c.c.c.c.",
"c.c.c.c.X c n n 2.3.i 0 $ # # # 9 0 0 0 0 0 1.3.i 0 0 o c.c.c.c.",
"c.c.c.c.X 8 0 0 4.7.p 0 0 0 0 0 0 0 e r r r 4.7.p 7 7 . c.c.c.c.",
"c.c.c.c.X 8 e r 9.q.f r r r 0 0 0 0 v n n n 0.q.d $ #   c.c.c.c.",
"c.c.c.c.X 8 v n o.z N n n n q 0 7 7 7 7 0 0 k z a r r O c.c.c.c.",
"c.c.c.c.X 8 0 0 1.3.i 0 0 0 0 0 $ # # # 9 7 <.3.M c c + c.c.c.c.",
"c.c.c.c.X 6 0 0 1.3.i 0 7 7 7 7 7 7 7 7 0 $ ,.3.- #     c.c.c.c.",
"c.c.c.c.X   6 7  .X.t 7 .               6 7  .X.t 7 .   c.c.c.c.",
"c.c.c.c.h g g g g g g g g g g g g g g g g g g g g g g g c.c.c.c.",
"c.c.c.c.c.c.c.c.c.c.c.c.c.c.c.c.c.c.c.c.c.c.c.c.c.c.c.c.c.c.c.c.",
"c.c.c.c.c.c.c.c.c.c.c.c.c.c.c.c.c.c.c.c.c.c.c.c.c.c.c.c.c.c.c.c.",
"c.c.c.c.c.c.c.c.c.c.c.c.c.c.c.c.c.c.c.c.c.c.c.c.c.c.c.c.c.c.c.c.",
"c.c.c.c.c.c.c.c.c.c.c.c.c.c.c.c.c.c.c.c.c.c.c.c.c.c.c.c.c.c.c.c."
};
