/* XPM */
static char *result[] = {
/* columns rows colors chars-per-pixel */
"32 32 9 1 ",
"  c #292333",
". c #3B324A",
"X c #377172",
"o c #9E907F",
"O c #4FA4A5",
"+ c #A2A29A",
"@ c #E6D1B8",
"# c #ECECE0",
"$ c #44896D",
/* pixels */
"$$$$$$$$$$$$$$$$$$$$$$$$$$$$$$$$",
"$$$$$$$$$$$$$$..$$$$$$$$$$$$$$$$",
"$$$$$$$$$$$$$$...$$$$$$$$$$$$$$$",
"$$$$$$$$$$$$$$...$$$$$$$$$$$$$$$",
"$$$$$$$$$$$$$$....$$$$$$$$$$$$$$",
"$$$$$$$$$$$$$$....$$$$$$$$$$$$$$",
"$$$$$$$$$$$$$$.....$$$$$$$$$$$$$",
"$$$$$$$$$$$$X......X  $$$$$$$$$$",
"$$$$$$$$$$   XX...O     $$$$$$$$",
"$$$$$$$$       OOO     ..$$$$$$$",
"$$$$$$$            .......$$$$$$",
"$$$$$$..    ..............$$$$$$",
"$$$$$$...................$$$$$$$",
"$$$$$$............XXX$$$$$$$$$$$",
"$$$$$$$...$XXXX+ o+.O$$$$$$$$$$$",
"$$$$$$$$$$$OOOO#.@#.O$$$$$$$$$$$",
"$$$$$$$$$$$OOOO@@@@@O$$$$$$$$$$$",
"$$$$$$$$$$$OOOOO   O$$$$$$$$$$$$",
"$$$$$$$$$$$.....    $$$$$$$$$$$$",
"$$$$$$$$$$.......    $$$$$$$$$$$",
"$$$$$$$$$........    $$$$$$$$$$$",
"$$$$$$$$$.........   $$$$$$$$$$$",
"$$$$$$$$..........   $$$$$$$$$$$",
"$$$$$$$$..........   $$$$$$$$$$$",
"$$$$$$$$..........   $$$$$$$$$$$",
"$$$$$$$$.$OOO....    $$$$$$$$$$$",
"$$$$$$$$$$OOOOO.     $$$$$$$$$$$",
"$$$$$$$$$$OOOOOO     $$$$$$$$$$$",
"$$$$$$$$$$$OOOOOO   $$$$$$$$$$$$",
"$$$$$$$$$$$$OOO$$XXX$$$$$$$$$$$$",
"$$$$$$$$$$$$$.$$$   $$$$$$$$$$$$",
"$$$$$$$$$$$$$$$$$$$$$$$$$$$$$$$$"
};
