/* XPM */
static char *_a4f09f9bd87497fb29b41b870f020946Bqh1irA1gaQBcp2[] = {
/* columns rows colors chars-per-pixel */
"32 32 22 1 ",
"  c #427C53",
". c #437C54",
"X c #49895C",
"o c #498A5D",
"O c #4B8B5C",
"+ c #508550",
"@ c #599A5F",
"# c #5A9B5E",
"$ c #5B9B5E",
"% c #689E53",
"& c #699F53",
"* c #689F54",
"= c #6CA759",
"- c #6DA759",
"; c #78AF55",
": c #79AF55",
"> c #7AB055",
", c #4D9161",
"< c #4E9261",
"1 c #4F9361",
"2 c #44896D",
"3 c #4E9362",
/* pixels */
"2222222=222222222222222222222222",
"22222222222222222222222222222222",
"2222222222222222222222222222222#",
"#22222222222222222222222222222#=",
"=22222222222222222222222222222=#",
"2222222222222222222222222222222=",
"22222222222222222222222222222222",
"22222222222222222222222222222222",
"222222222o2222222222222222222222",
"22222222o.o222222222222222222222",
"22222222.o 222222222222222222222",
"222222222 22222222222222#2222222",
"2222222222222222222222#2:2222222",
"2222222222222222222222:2:2222222",
"2222222222222222222222:1=2222222",
"2222222222222222222222=222222222",
"222222222222#2222222222222222222",
"22222222222@=$222222222222222222",
"22222222222=#=222222222222222222",
"222222222222=2222222222222222222",
"222222222222222222222o2222222222",
"22222222222222222222o.X222222222",
"22222222222222222222.o.222222222",
"222222222222222222222.2222222222",
"22222222222222222222223322222222",
"2222222222222222@222233322222222",
"2222222222222222;@22223322222222",
"22222@2222222222>>22@21122222222",
"22222:2222222222=;X#:OO122222222",
"22222:2$222222222=+;&,1122222222",
"22222:1:222222222 %%.22222222222",
"22222=2:2222222222  222222222222"
};
