/* XPM */
static char *result[] = {
/* columns rows colors chars-per-pixel */
"32 32 9 1 ",
"  c #373737",
". c #345B4B",
"X c #646464",
"o c #6C676D",
"O c #44896D",
"+ c #7D7580",
"@ c #B1B680",
"# c #A4A4A4",
"$ c #CCD194",
/* pixels */
"O$OO$@$OOOOOOOOOOOOOOOOOOOOOOOOO",
"$@$OO$OOOOOOOOOOOOOOOOOOOOOOOOOO",
"O$OOOOOOOOOOOOOOOOOOOOOOOOOOOOOO",
"OOOOO                      OOOOO",
"OOOO oooooooooooooooooooooo OOOO",
"OOO oo++++++++++++++++++++oo OOO",
"OOO o++++++++++++++++++++++o OOO",
"OO ++++++++++++++++++++++++++ OO",
"OO +X######################X+ OO",
"OO +#XXXXXXXXXXXXXXXXXXXXXX#+ OO",
"OO +#X####################X#+ OO",
"OO +#X####################X#+ OO",
"OO +#X#XX#XXXX##X#XXXX####X#+ OO",
"OO +#X####################X#+ OO",
"OO +#X#XXX#X#XXXX##X######X#+ OO",
"OO +#X####################X#+ OO",
"OO +#X####################X#+ OO",
"OO +#X#XX#XX##X#XXXXX#####X#+ OO",
"OO +#X####################X#+ OO",
"OO +#X####################X#+ OO",
"OO +#X#XX#X##XXXXXX#######X#+ OO",
"OO +#X####################X#+ OO",
"OO +#X####################X#+ OO",
"OO +#X####################X#+ OO",
"OO .#X#############X#XXXX#X#. O$",
"$O .#X####################... $@",
"OO ...XXXXXXXXXXXXXXXXXXXXX.. O$",
"OO ..##########.#########.#.. OO",
"OO .+.+.++++++..++++++++++... OO",
"$O ......XXXX.....XXXXXXX.... OO",
"@$O                          OO$",
"$OOOO$OOOOOOOOOOOOOOOOOOOOOOOOOO"
};
